<svg xmlns="http://www.w3.org/2000/svg" xmlns:xlink="http://www.w3.org/1999/xlink" width="500" zoomAndPan="magnify" viewBox="0 0 375 374.999991" height="500" preserveAspectRatio="xMidYMid meet" version="1.0"><defs><g/><clipPath id="d822c42057"><path d="M 286.574219 171.800781 L 313.125 171.800781 L 313.125 177.164062 L 286.574219 177.164062 Z M 286.574219 171.800781 " clip-rule="nonzero"/></clipPath><clipPath id="fa586b9b1f"><path d="M 286.574219 184.820312 L 313.125 184.820312 L 313.125 190.179688 L 286.574219 190.179688 Z M 286.574219 184.820312 " clip-rule="nonzero"/></clipPath><clipPath id="08f36528db"><path d="M 286.574219 197.679688 L 313.125 197.679688 L 313.125 203.042969 L 286.574219 203.042969 Z M 286.574219 197.679688 " clip-rule="nonzero"/></clipPath></defs><rect x="-37.5" width="450" fill="#ffffff" y="-37.499999" height="449.999989" fill-opacity="1"/><rect x="-37.5" width="450" fill="#ffffff" y="-37.499999" height="449.999989" fill-opacity="1"/><g fill="#000000" fill-opacity="1"><g transform="translate(79.453484, 202.498259)"><g><path d="M 16.359375 0.5625 C 13.828125 0.5625 11.632812 0.132812 9.78125 -0.71875 C 7.925781 -1.570312 6.390625 -2.734375 5.171875 -4.203125 C 3.960938 -5.671875 3.054688 -7.359375 2.453125 -9.265625 C 1.859375 -11.171875 1.5625 -13.175781 1.5625 -15.28125 C 1.5625 -17.382812 1.859375 -19.390625 2.453125 -21.296875 C 3.054688 -23.203125 3.960938 -24.890625 5.171875 -26.359375 C 6.390625 -27.828125 7.925781 -28.976562 9.78125 -29.8125 C 11.632812 -30.65625 13.828125 -31.078125 16.359375 -31.078125 C 18.867188 -31.078125 21.039062 -30.648438 22.875 -29.796875 C 24.71875 -28.941406 26.1875 -27.753906 27.28125 -26.234375 C 28.375 -24.710938 29.050781 -22.953125 29.3125 -20.953125 L 23.046875 -20.953125 C 22.773438 -22.585938 22.019531 -23.820312 20.78125 -24.65625 C 19.539062 -25.5 18.015625 -25.921875 16.203125 -25.921875 C 14.335938 -25.921875 12.765625 -25.472656 11.484375 -24.578125 C 10.203125 -23.679688 9.226562 -22.429688 8.5625 -20.828125 C 7.894531 -19.234375 7.5625 -17.382812 7.5625 -15.28125 C 7.5625 -13.175781 7.894531 -11.316406 8.5625 -9.703125 C 9.226562 -8.085938 10.203125 -6.832031 11.484375 -5.9375 C 12.765625 -5.039062 14.335938 -4.59375 16.203125 -4.59375 C 18.015625 -4.59375 19.53125 -5.03125 20.75 -5.90625 C 21.976562 -6.789062 22.742188 -8.128906 23.046875 -9.921875 L 29.3125 -9.921875 C 29.050781 -7.816406 28.375 -5.976562 27.28125 -4.40625 C 26.1875 -2.832031 24.71875 -1.609375 22.875 -0.734375 C 21.039062 0.128906 18.867188 0.5625 16.359375 0.5625 Z M 16.359375 0.5625 "/></g></g></g><g fill="#000000" fill-opacity="1"><g transform="translate(110.130435, 202.498259)"><g><path d="M 16.359375 0.5625 C 13.847656 0.5625 11.660156 0.132812 9.796875 -0.71875 C 7.929688 -1.570312 6.390625 -2.734375 5.171875 -4.203125 C 3.960938 -5.671875 3.054688 -7.359375 2.453125 -9.265625 C 1.859375 -11.171875 1.5625 -13.175781 1.5625 -15.28125 C 1.5625 -17.382812 1.859375 -19.390625 2.453125 -21.296875 C 3.054688 -23.203125 3.960938 -24.890625 5.171875 -26.359375 C 6.390625 -27.828125 7.929688 -28.976562 9.796875 -29.8125 C 11.660156 -30.65625 13.847656 -31.078125 16.359375 -31.078125 C 18.890625 -31.078125 21.085938 -30.65625 22.953125 -29.8125 C 24.828125 -28.976562 26.367188 -27.828125 27.578125 -26.359375 C 28.796875 -24.890625 29.703125 -23.203125 30.296875 -21.296875 C 30.898438 -19.390625 31.203125 -17.382812 31.203125 -15.28125 C 31.203125 -13.175781 30.898438 -11.171875 30.296875 -9.265625 C 29.703125 -7.359375 28.796875 -5.671875 27.578125 -4.203125 C 26.367188 -2.734375 24.828125 -1.570312 22.953125 -0.71875 C 21.085938 0.132812 18.890625 0.5625 16.359375 0.5625 Z M 16.359375 -4.59375 C 18.253906 -4.59375 19.851562 -5.039062 21.15625 -5.9375 C 22.46875 -6.832031 23.46875 -8.085938 24.15625 -9.703125 C 24.851562 -11.316406 25.203125 -13.175781 25.203125 -15.28125 C 25.203125 -17.382812 24.851562 -19.226562 24.15625 -20.8125 C 23.46875 -22.40625 22.46875 -23.644531 21.15625 -24.53125 C 19.851562 -25.425781 18.253906 -25.875 16.359375 -25.875 C 14.515625 -25.875 12.929688 -25.425781 11.609375 -24.53125 C 10.296875 -23.644531 9.289062 -22.40625 8.59375 -20.8125 C 7.90625 -19.226562 7.5625 -17.382812 7.5625 -15.28125 C 7.5625 -13.175781 7.90625 -11.316406 8.59375 -9.703125 C 9.289062 -8.085938 10.296875 -6.832031 11.609375 -5.9375 C 12.929688 -5.039062 14.515625 -4.59375 16.359375 -4.59375 Z M 16.359375 -4.59375 "/></g></g></g><g fill="#000000" fill-opacity="1"><g transform="translate(142.927174, 202.498259)"><g><path d="M 11.59375 0 L 2.71875 0 L 2.71875 -30.515625 L 11.59375 -30.515625 C 16.769531 -30.515625 20.722656 -29.191406 23.453125 -26.546875 C 26.191406 -23.910156 27.5625 -20.140625 27.5625 -15.234375 C 27.5625 -10.359375 26.1875 -6.597656 23.4375 -3.953125 C 20.6875 -1.316406 16.738281 0 11.59375 0 Z M 8.484375 -25.359375 L 8.484375 -5.15625 L 11.515625 -5.15625 C 13.546875 -5.15625 15.332031 -5.46875 16.875 -6.09375 C 18.425781 -6.726562 19.632812 -7.785156 20.5 -9.265625 C 21.363281 -10.742188 21.796875 -12.734375 21.796875 -15.234375 C 21.796875 -17.609375 21.367188 -19.535156 20.515625 -21.015625 C 19.660156 -22.492188 18.46875 -23.585938 16.9375 -24.296875 C 15.40625 -25.003906 13.613281 -25.359375 11.5625 -25.359375 Z M 8.484375 -25.359375 "/></g></g></g><g fill="#000000" fill-opacity="1"><g transform="translate(172.044283, 202.498259)"><g><path d="M 23.078125 0 L 2.71875 0 L 2.71875 -30.515625 L 23.078125 -30.515625 L 23.078125 -25.359375 L 8.484375 -25.359375 L 8.484375 -17.84375 L 21.5625 -17.84375 L 21.5625 -12.71875 L 8.484375 -12.71875 L 8.484375 -5.15625 L 23.078125 -5.15625 Z M 23.078125 0 "/></g></g></g><g fill="#000000" fill-opacity="1"><g transform="translate(196.887074, 202.498259)"><g/></g></g><g fill="#000000" fill-opacity="1"><g transform="translate(207.60601, 202.498259)"><g/></g></g><g fill="#000000" fill-opacity="1"><g transform="translate(218.324947, 202.498259)"><g/></g></g><g fill="#5271ff" fill-opacity="1"><g transform="translate(229.055037, 202.498259)"><g><path d="M 17.046875 0 L 11 0 L 11 -11.953125 L -0.125 -30.515625 L 6.59375 -30.515625 L 14 -17.5625 L 21.4375 -30.515625 L 28.125 -30.515625 L 17.046875 -11.953125 Z M 17.046875 0 "/></g></g></g><g fill="#5271ff" fill-opacity="1"><g transform="translate(257.05225, 202.498259)"><g><path d="M 15.484375 0 L 9.71875 0 L 9.71875 -25.359375 L 0.40625 -25.359375 L 0.40625 -30.515625 L 24.765625 -30.515625 L 24.765625 -25.359375 L 15.484375 -25.359375 Z M 15.484375 0 "/></g></g></g><g clip-path="url(#d822c42057)"><path fill="#000000" d="M 286.574219 171.800781 L 313.117188 171.800781 L 313.117188 177.164062 L 286.574219 177.164062 Z M 286.574219 171.800781 " fill-opacity="1" fill-rule="nonzero"/></g><g clip-path="url(#fa586b9b1f)"><path fill="#000000" d="M 286.574219 184.820312 L 313.117188 184.820312 L 313.117188 190.179688 L 286.574219 190.179688 Z M 286.574219 184.820312 " fill-opacity="1" fill-rule="nonzero"/></g><g clip-path="url(#08f36528db)"><path fill="#000000" d="M 286.574219 197.679688 L 313.117188 197.679688 L 313.117188 203.042969 L 286.574219 203.042969 Z M 286.574219 197.679688 " fill-opacity="1" fill-rule="nonzero"/></g><g fill="#000000" fill-opacity="1"><g transform="translate(225.529369, 172.494363)"><g><path d="M -23.078125 0 L -2.71875 0 L -2.71875 30.515625 L -23.078125 30.515625 L -23.078125 25.359375 L -8.484375 25.359375 L -8.484375 17.84375 L -21.5625 17.84375 L -21.5625 12.71875 L -8.484375 12.71875 L -8.484375 5.15625 L -23.078125 5.15625 Z M -23.078125 0 "/></g></g></g></svg>