<svg xmlns="http://www.w3.org/2000/svg" xmlns:xlink="http://www.w3.org/1999/xlink" width="500" zoomAndPan="magnify" viewBox="0 0 375 374.999991" height="500" preserveAspectRatio="xMidYMid meet" version="1.0"><defs><g/></defs><rect x="-37.5" width="450" fill="#ffffff" y="-37.499999" height="449.999989" fill-opacity="1"/><rect x="-37.5" width="450" fill="#1d150b" y="-37.499999" height="449.999989" fill-opacity="1"/><g fill="#ffffff" fill-opacity="1"><g transform="translate(64.565851, 211.386019)"><g><path d="M 1.53125 0 L 1.53125 -0.6875 L 2.984375 -1.25 C 3.898438 -1.570312 4.5 -2.007812 4.78125 -2.5625 C 5.0625 -3.113281 5.203125 -3.832031 5.203125 -4.71875 L 5.203125 -40.9375 C 5.203125 -41.863281 5.0625 -42.601562 4.78125 -43.15625 C 4.5 -43.71875 3.898438 -44.160156 2.984375 -44.484375 L 1.53125 -45.03125 L 1.53125 -45.71875 L 18.78125 -45.71875 L 18.78125 -45.03125 L 17.25 -44.40625 C 16.46875 -44.132812 15.9375 -43.71875 15.65625 -43.15625 C 15.375 -42.601562 15.234375 -41.84375 15.234375 -40.875 L 15.234375 -4.640625 C 15.234375 -3.710938 15.382812 -2.992188 15.6875 -2.484375 C 15.988281 -1.984375 16.578125 -1.570312 17.453125 -1.25 L 18.78125 -0.6875 L 18.78125 0 Z M 27.09375 0 L 27.09375 -0.6875 L 27.984375 -0.96875 C 28.910156 -1.25 29.394531 -1.710938 29.4375 -2.359375 C 29.488281 -3.003906 29.210938 -3.742188 28.609375 -4.578125 L 15.3125 -23.484375 L 32.84375 -41.359375 C 33.488281 -42.003906 33.84375 -42.625 33.90625 -43.21875 C 33.976562 -43.820312 33.53125 -44.285156 32.5625 -44.609375 L 31.390625 -45.03125 L 31.390625 -45.71875 L 41.5 -45.71875 L 41.5 -45.03125 L 39.703125 -44.484375 C 38.679688 -44.160156 37.867188 -43.765625 37.265625 -43.296875 C 36.671875 -42.835938 35.976562 -42.21875 35.1875 -41.4375 L 22.796875 -28.75 L 39.078125 -4.984375 C 39.765625 -3.972656 40.421875 -3.144531 41.046875 -2.5 C 41.671875 -1.851562 42.5625 -1.34375 43.71875 -0.96875 L 44.6875 -0.6875 L 44.6875 0 Z M 27.09375 0 "/></g></g></g><g fill="#ffffff" fill-opacity="1"><g transform="translate(109.870351, 211.386019)"><g><path d="M 11.5 1.046875 C 8.820312 1.046875 6.570312 0.285156 4.75 -1.234375 C 2.925781 -2.765625 2.015625 -4.960938 2.015625 -7.828125 C 2.015625 -9.992188 3.117188 -11.988281 5.328125 -13.8125 C 7.546875 -15.644531 11.035156 -17.019531 15.796875 -17.9375 C 16.535156 -18.082031 17.363281 -18.234375 18.28125 -18.390625 C 19.207031 -18.554688 20.179688 -18.726562 21.203125 -18.90625 L 21.203125 -24.390625 C 21.203125 -27.523438 20.816406 -29.726562 20.046875 -31 C 19.285156 -32.269531 18.097656 -32.90625 16.484375 -32.90625 C 15.378906 -32.90625 14.503906 -32.546875 13.859375 -31.828125 C 13.210938 -31.117188 12.796875 -29.882812 12.609375 -28.125 L 12.46875 -27.359375 C 12.375 -25.378906 11.890625 -23.925781 11.015625 -23 C 10.140625 -22.070312 9.054688 -21.609375 7.765625 -21.609375 C 6.554688 -21.609375 5.5625 -21.976562 4.78125 -22.71875 C 4 -23.457031 3.609375 -24.453125 3.609375 -25.703125 C 3.609375 -27.597656 4.265625 -29.191406 5.578125 -30.484375 C 6.890625 -31.773438 8.628906 -32.742188 10.796875 -33.390625 C 12.972656 -34.035156 15.332031 -34.359375 17.875 -34.359375 C 21.988281 -34.359375 25.164062 -33.351562 27.40625 -31.34375 C 29.644531 -29.34375 30.765625 -26.078125 30.765625 -21.546875 L 30.765625 -6.234375 C 30.765625 -4.160156 31.734375 -3.125 33.671875 -3.125 L 35.1875 -3.125 L 35.8125 -2.5625 C 34.9375 -1.457031 33.976562 -0.601562 32.9375 0 C 31.90625 0.601562 30.441406 0.90625 28.546875 0.90625 C 26.515625 0.90625 24.910156 0.429688 23.734375 -0.515625 C 22.554688 -1.460938 21.78125 -2.722656 21.40625 -4.296875 C 20.019531 -2.816406 18.597656 -1.554688 17.140625 -0.515625 C 15.691406 0.523438 13.8125 1.046875 11.5 1.046875 Z M 15.734375 -3.1875 C 16.648438 -3.1875 17.507812 -3.40625 18.3125 -3.84375 C 19.125 -4.28125 20.085938 -4.960938 21.203125 -5.890625 L 21.203125 -17.53125 C 20.734375 -17.4375 20.269531 -17.34375 19.8125 -17.25 C 19.351562 -17.15625 18.820312 -17.0625 18.21875 -16.96875 C 16.09375 -16.414062 14.394531 -15.476562 13.125 -14.15625 C 11.851562 -12.84375 11.21875 -11.082031 11.21875 -8.875 C 11.21875 -6.976562 11.65625 -5.554688 12.53125 -4.609375 C 13.414062 -3.660156 14.484375 -3.1875 15.734375 -3.1875 Z M 15.734375 -3.1875 "/></g></g></g><g fill="#ffffff" fill-opacity="1"><g transform="translate(145.753733, 211.386019)"><g><path d="M 1.59375 0 L 1.59375 -0.6875 L 2.421875 -0.96875 C 4.085938 -1.519531 4.921875 -2.675781 4.921875 -4.4375 L 4.921875 -41.5 C 4.921875 -42.425781 4.734375 -43.128906 4.359375 -43.609375 C 3.992188 -44.097656 3.347656 -44.457031 2.421875 -44.6875 L 1.53125 -44.890625 L 1.53125 -45.59375 L 14.203125 -48.5625 L 15.03125 -47.9375 L 14.75 -38.25 L 14.75 -14.546875 C 14.75 -12.835938 14.757812 -11.140625 14.78125 -9.453125 C 14.8125 -7.765625 14.828125 -6.09375 14.828125 -4.4375 C 14.828125 -3.507812 15.007812 -2.753906 15.375 -2.171875 C 15.75 -1.597656 16.375 -1.175781 17.25 -0.90625 L 18.15625 -0.6875 L 18.15625 0 Z M 1.59375 0 "/></g></g></g><g fill="#ffffff" fill-opacity="1"><g transform="translate(165.565795, 211.386019)"><g><path d="M 9.703125 -37.96875 C 8.128906 -37.96875 6.800781 -38.460938 5.71875 -39.453125 C 4.632812 -40.441406 4.09375 -41.703125 4.09375 -43.234375 C 4.09375 -44.804688 4.632812 -46.078125 5.71875 -47.046875 C 6.800781 -48.015625 8.128906 -48.5 9.703125 -48.5 C 11.273438 -48.5 12.585938 -48.015625 13.640625 -47.046875 C 14.703125 -46.078125 15.234375 -44.804688 15.234375 -43.234375 C 15.234375 -41.703125 14.703125 -40.441406 13.640625 -39.453125 C 12.585938 -38.460938 11.273438 -37.96875 9.703125 -37.96875 Z M 1.53125 0 L 1.53125 -0.6875 L 2.5 -0.96875 C 3.414062 -1.25 4.046875 -1.664062 4.390625 -2.21875 C 4.742188 -2.769531 4.921875 -3.507812 4.921875 -4.4375 L 4.921875 -26.125 C 4.921875 -27.09375 4.742188 -27.816406 4.390625 -28.296875 C 4.046875 -28.785156 3.414062 -29.125 2.5 -29.3125 L 1.53125 -29.515625 L 1.53125 -30.203125 L 14.203125 -34.296875 L 14.890625 -33.59375 L 14.6875 -23.765625 L 14.6875 -4.359375 C 14.6875 -3.441406 14.859375 -2.703125 15.203125 -2.140625 C 15.554688 -1.585938 16.171875 -1.175781 17.046875 -0.90625 L 17.734375 -0.6875 L 17.734375 0 Z M 1.53125 0 "/></g></g></g><g fill="#ffffff" fill-opacity="1"><g transform="translate(184.962215, 211.386019)"><g><path d="M 13.375 1.046875 C 11.101562 1.046875 9.066406 0.78125 7.265625 0.25 C 5.472656 -0.28125 3.8125 -0.941406 2.28125 -1.734375 L 2.359375 -9.96875 L 3.046875 -9.96875 L 5.40625 -5.8125 C 6.414062 -3.96875 7.53125 -2.59375 8.75 -1.6875 C 9.976562 -0.789062 11.539062 -0.34375 13.4375 -0.34375 C 15.65625 -0.34375 17.445312 -0.835938 18.8125 -1.828125 C 20.175781 -2.828125 20.859375 -4.15625 20.859375 -5.8125 C 20.859375 -7.34375 20.367188 -8.59375 19.390625 -9.5625 C 18.421875 -10.53125 16.625 -11.40625 14 -12.1875 L 11.078125 -13.09375 C 8.265625 -13.925781 6.050781 -15.21875 4.4375 -16.96875 C 2.820312 -18.726562 2.015625 -20.878906 2.015625 -23.421875 C 2.015625 -26.460938 3.210938 -29.046875 5.609375 -31.171875 C 8.015625 -33.296875 11.457031 -34.359375 15.9375 -34.359375 C 17.738281 -34.359375 19.4375 -34.160156 21.03125 -33.765625 C 22.625 -33.378906 24.160156 -32.796875 25.640625 -32.015625 L 25.21875 -24.53125 L 24.53125 -24.53125 L 22.09375 -28.828125 C 21.21875 -30.347656 20.351562 -31.421875 19.5 -32.046875 C 18.644531 -32.671875 17.363281 -32.984375 15.65625 -32.984375 C 14.082031 -32.984375 12.601562 -32.539062 11.21875 -31.65625 C 9.832031 -30.78125 9.140625 -29.535156 9.140625 -27.921875 C 9.140625 -26.347656 9.726562 -25.097656 10.90625 -24.171875 C 12.082031 -23.253906 13.828125 -22.398438 16.140625 -21.609375 L 19.265625 -20.71875 C 22.585938 -19.695312 24.960938 -18.296875 26.390625 -16.515625 C 27.828125 -14.742188 28.546875 -12.609375 28.546875 -10.109375 C 28.546875 -6.742188 27.21875 -4.039062 24.5625 -2 C 21.90625 0.03125 18.175781 1.046875 13.375 1.046875 Z M 13.375 1.046875 "/></g></g></g><g fill="#ffffff" fill-opacity="1"><g transform="translate(215.16522, 211.386019)"><g><path d="M 14.546875 1.046875 C 11.585938 1.046875 9.289062 0.304688 7.65625 -1.171875 C 6.019531 -2.648438 5.203125 -5.007812 5.203125 -8.25 L 5.203125 -31.9375 L 0.421875 -31.9375 L 0.421875 -32.625 L 2.078125 -32.90625 C 3.503906 -33.226562 4.738281 -33.6875 5.78125 -34.28125 C 6.820312 -34.882812 7.851562 -35.695312 8.875 -36.71875 L 14.546875 -43.03125 L 15.234375 -43.03125 L 15.03125 -33.328125 L 22.796875 -33.328125 L 22.796875 -31.9375 L 14.96875 -31.9375 L 14.96875 -7 C 14.96875 -5.382812 15.320312 -4.160156 16.03125 -3.328125 C 16.75 -2.492188 17.664062 -2.078125 18.78125 -2.078125 C 19.75 -2.078125 20.601562 -2.316406 21.34375 -2.796875 C 22.082031 -3.285156 22.820312 -3.945312 23.5625 -4.78125 L 24.25 -4.09375 C 23.320312 -2.519531 22.050781 -1.269531 20.4375 -0.34375 C 18.820312 0.582031 16.859375 1.046875 14.546875 1.046875 Z M 14.546875 1.046875 "/></g></g></g><g fill="#ffffff" fill-opacity="1"><g transform="translate(240.172745, 211.386019)"><g><path d="M 18.78125 -34.359375 C 21.78125 -34.359375 24.34375 -33.742188 26.46875 -32.515625 C 28.59375 -31.296875 30.21875 -29.632812 31.34375 -27.53125 C 32.476562 -25.4375 33.046875 -23.050781 33.046875 -20.375 C 33.046875 -19.863281 33.019531 -19.34375 32.96875 -18.8125 C 32.925781 -18.28125 32.835938 -17.804688 32.703125 -17.390625 L 12.0625 -17.390625 C 12.101562 -12.398438 12.988281 -8.804688 14.71875 -6.609375 C 16.457031 -4.421875 19.035156 -3.328125 22.453125 -3.328125 C 24.753906 -3.328125 26.617188 -3.695312 28.046875 -4.4375 C 29.484375 -5.175781 30.828125 -6.257812 32.078125 -7.6875 L 32.765625 -7.0625 C 31.335938 -4.519531 29.429688 -2.53125 27.046875 -1.09375 C 24.671875 0.332031 21.820312 1.046875 18.5 1.046875 C 15.21875 1.046875 12.304688 0.34375 9.765625 -1.0625 C 7.222656 -2.476562 5.234375 -4.5 3.796875 -7.125 C 2.367188 -9.757812 1.65625 -12.90625 1.65625 -16.5625 C 1.65625 -20.34375 2.488281 -23.5625 4.15625 -26.21875 C 5.820312 -28.875 7.957031 -30.894531 10.5625 -32.28125 C 13.175781 -33.664062 15.914062 -34.359375 18.78125 -34.359375 Z M 18.5625 -32.984375 C 17.226562 -32.984375 16.085938 -32.578125 15.140625 -31.765625 C 14.191406 -30.953125 13.453125 -29.519531 12.921875 -27.46875 C 12.390625 -25.414062 12.101562 -22.519531 12.0625 -18.78125 L 23.90625 -18.78125 C 24.363281 -23.8125 24.175781 -27.4375 23.34375 -29.65625 C 22.507812 -31.875 20.914062 -32.984375 18.5625 -32.984375 Z M 18.5625 -32.984375 "/></g></g></g><g fill="#ffffff" fill-opacity="1"><g transform="translate(275.294116, 211.386019)"><g><path d="M 18.78125 -34.359375 C 21.78125 -34.359375 24.34375 -33.742188 26.46875 -32.515625 C 28.59375 -31.296875 30.21875 -29.632812 31.34375 -27.53125 C 32.476562 -25.4375 33.046875 -23.050781 33.046875 -20.375 C 33.046875 -19.863281 33.019531 -19.34375 32.96875 -18.8125 C 32.925781 -18.28125 32.835938 -17.804688 32.703125 -17.390625 L 12.0625 -17.390625 C 12.101562 -12.398438 12.988281 -8.804688 14.71875 -6.609375 C 16.457031 -4.421875 19.035156 -3.328125 22.453125 -3.328125 C 24.753906 -3.328125 26.617188 -3.695312 28.046875 -4.4375 C 29.484375 -5.175781 30.828125 -6.257812 32.078125 -7.6875 L 32.765625 -7.0625 C 31.335938 -4.519531 29.429688 -2.53125 27.046875 -1.09375 C 24.671875 0.332031 21.820312 1.046875 18.5 1.046875 C 15.21875 1.046875 12.304688 0.34375 9.765625 -1.0625 C 7.222656 -2.476562 5.234375 -4.5 3.796875 -7.125 C 2.367188 -9.757812 1.65625 -12.90625 1.65625 -16.5625 C 1.65625 -20.34375 2.488281 -23.5625 4.15625 -26.21875 C 5.820312 -28.875 7.957031 -30.894531 10.5625 -32.28125 C 13.175781 -33.664062 15.914062 -34.359375 18.78125 -34.359375 Z M 18.5625 -32.984375 C 17.226562 -32.984375 16.085938 -32.578125 15.140625 -31.765625 C 14.191406 -30.953125 13.453125 -29.519531 12.921875 -27.46875 C 12.390625 -25.414062 12.101562 -22.519531 12.0625 -18.78125 L 23.90625 -18.78125 C 24.363281 -23.8125 24.175781 -27.4375 23.34375 -29.65625 C 22.507812 -31.875 20.914062 -32.984375 18.5625 -32.984375 Z M 18.5625 -32.984375 "/></g></g></g></svg>